<?xml version="1.0" encoding="UTF-8"?>
<svg width="900" height="650" viewBox="0 0 900 650" xmlns="http://www.w3.org/2000/svg">
  <title>Advanced Topics in Physical AI</title>
  <desc>Diagram showing advanced concepts in Physical AI including learning, adaptation, integration, and future directions.</desc>

  <!-- Background -->
  <rect x="0" y="0" width="900" height="650" fill="#f8f9fa" stroke="none"/>

  <!-- Central AI brain/core system -->
  <g transform="translate(450, 150)">
    <circle cx="0" cy="0" r="60" fill="#e3f2fd" stroke="#1976d2" stroke-width="3"/>
    <text x="0" y="-10" text-anchor="middle" font-family="Arial" font-size="12" font-weight="bold" fill="#1565c0">Physical AI</text>
    <text x="0" y="10" text-anchor="middle" font-family="Arial" font-size="10" fill="#333">Core System</text>
    <text x="0" y="25" text-anchor="middle" font-family="Arial" font-size="10" fill="#333">Integration</text>
  </g>

  <!-- Machine Learning section (top right) -->
  <g transform="translate(650, 80)">
    <rect x="-80" y="-40" width="160" height="80" fill="#e8f5e8" stroke="#388e3c" stroke-width="2" rx="10" ry="10"/>
    <text x="0" y="-20" text-anchor="middle" font-family="Arial" font-size="12" font-weight="bold" fill="#2e7d32">Machine Learning</text>
    <text x="0" y="0" text-anchor="middle" font-family="Arial" font-size="10" fill="#333">Reinforcement Learning</text>
    <text x="0" y="15" text-anchor="middle" font-family="Arial" font-size="10" fill="#333">Imitation Learning</text>
    <text x="0" y="30" text-anchor="middle" font-family="Arial" font-size="10" fill="#333">Deep Learning</text>
  </g>

  <!-- Adaptation section (top left) -->
  <g transform="translate(250, 80)">
    <rect x="-80" y="-40" width="160" height="80" fill="#fff3e0" stroke="#f57c00" stroke-width="2" rx="10" ry="10"/>
    <text x="0" y="-20" text-anchor="middle" font-family="Arial" font-size="12" font-weight="bold" fill="#e65100">Adaptation</text>
    <text x="0" y="0" text-anchor="middle" font-family="Arial" font-size="10" fill="#333">Online Learning</text>
    <text x="0" y="15" text-anchor="middle" font-family="Arial" font-size="10" fill="#333">Self-Supervision</text>
    <text x="0" y="30" text-anchor="middle" font-family="Arial" font-size="10" fill="#333">Transfer Learning</text>
  </g>

  <!-- Human-Robot Interaction section (bottom left) -->
  <g transform="translate(250, 300)">
    <rect x="-80" y="-40" width="160" height="80" fill="#fce4ec" stroke="#c2185b" stroke-width="2" rx="10" ry="10"/>
    <text x="0" y="-20" text-anchor="middle" font-family="Arial" font-size="12" font-weight="bold" fill="#880e4f">Human-Robot</text>
    <text x="0" y="0" text-anchor="middle" font-family="Arial" font-size="10" fill="#333">Collaboration</text>
    <text x="0" y="15" text-anchor="middle" font-family="Arial" font-size="10" fill="#333">Intention Recognition</text>
    <text x="0" y="30" text-anchor="middle" font-family="Arial" font-size="10" fill="#333">Social Intelligence</text>
  </g>

  <!-- Advanced Control section (bottom right) -->
  <g transform="translate(650, 300)">
    <rect x="-80" y="-40" width="160" height="80" fill="#f3e5f5" stroke="#7b1fa2" stroke-width="2" rx="10" ry="10"/>
    <text x="0" y="-20" text-anchor="middle" font-family="Arial" font-size="12" font-weight="bold" fill="#6a1b9a">Advanced Control</text>
    <text x="0" y="0" text-anchor="middle" font-family="Arial" font-size="10" fill="#333">MPC</text>
    <text x="0" y="15" text-anchor="middle" font-family="Arial" font-size="10" fill="#333">Hybrid Systems</text>
    <text x="0" y="30" text-anchor="middle" font-family="Arial" font-size="10" fill="#333">Distributed Control</text>
  </g>

  <!-- Emerging Tech section (bottom center) -->
  <g transform="translate(450, 450)">
    <rect x="-100" y="-40" width="200" height="80" fill="#e0f7fa" stroke="#00838f" stroke-width="2" rx="10" ry="10"/>
    <text x="0" y="-20" text-anchor="middle" font-family="Arial" font-size="12" font-weight="bold" fill="#006064">Emerging Technologies</text>
    <text x="0" y="0" text-anchor="middle" font-family="Arial" font-size="10" fill="#333">Soft Robotics</text>
    <text x="0" y="15" text-anchor="middle" font-family="Arial" font-size="10" fill="#333">Neuromorphic Computing</text>
    <text x="0" y="30" text-anchor="middle" font-family="Arial" font-size="10" fill="#333">Quantum Applications</text>
  </g>

  <!-- Integration arrows -->
  <line x1="400" y1="110" x2="330" y2="80" stroke="#666" stroke-width="2" marker-end="url(#arrowhead)"/>
  <line x1="500" y1="110" x2="570" y2="80" stroke="#666" stroke-width="2" marker-end="url(#arrowhead)"/>
  <line x1="330" y1="200" x2="400" y2="250" stroke="#666" stroke-width="2" marker-end="url(#arrowhead)"/>
  <line x1="570" y1="200" x2="500" y2="250" stroke="#666" stroke-width="2" marker-end="url(#arrowhead)"/>
  <line x1="330" y1="280" x2="400" y2="230" stroke="#666" stroke-width="2" marker-end="url(#arrowhead)"/>
  <line x1="570" y1="280" x2="500" y2="230" stroke="#666" stroke-width="2" marker-end="url(#arrowhead)"/>
  <line x1="400" y1="350" x2="330" y2="320" stroke="#666" stroke-width="2" marker-end="url(#arrowhead)"/>
  <line x1="500" y1="350" x2="570" y2="320" stroke="#666" stroke-width="2" marker-end="url(#arrowhead)"/>
  <line x1="450" y1="210" x2="450" y2="370" stroke="#666" stroke-width="2" marker-end="url(#arrowhead)"/>
  <line x1="450" y1="430" x2="450" y2="270" stroke="#666" stroke-width="2" marker-end="url(#arrowhead)"/>

  <!-- Learning loop example -->
  <g transform="translate(100, 150)">
    <rect x="0" y="0" width="120" height="160" fill="white" stroke="#ccc" stroke-width="2" rx="5" ry="5"/>
    <text x="60" y="20" text-anchor="middle" font-family="Arial" font-size="10" font-weight="bold" fill="#333">Learning Loop</text>

    <!-- Sensor input -->
    <rect x="10" y="30" width="100" height="20" fill="#bbdefb" stroke="#1976d2" stroke-width="1"/>
    <text x="60" y="45" text-anchor="middle" font-family="Arial" font-size="8" fill="#333">Sensory Input</text>

    <!-- Processing -->
    <rect x="10" y="60" width="100" height="20" fill="#e8f5e8" stroke="#388e3c" stroke-width="1"/>
    <text x="60" y="75" text-anchor="middle" font-family="Arial" font-size="8" fill="#333">Learning</text>

    <!-- Decision -->
    <rect x="10" y="90" width="100" height="20" fill="#fff3e0" stroke="#f57c00" stroke-width="1"/>
    <text x="60" y="105" text-anchor="middle" font-family="Arial" font-size="8" fill="#333">Decision</text>

    <!-- Action -->
    <rect x="10" y="120" width="100" height="20" fill="#f3e5f5" stroke="#7b1fa2" stroke-width="1"/>
    <text x="60" y="135" text-anchor="middle" font-family="Arial" font-size="8" fill="#333">Action</text>

    <!-- Feedback loop -->
    <path d="M 110 130 Q 130 130 130 80 Q 130 30 110 30"
          fill="none" stroke="#ff5722" stroke-width="2" stroke-dasharray="3,3"/>
    <polygon points="110,30 105,25 115,25" fill="#ff5722"/>
    <text x="140" y="85" text-anchor="start" font-family="Arial" font-size="7" fill="#ff5722">Feedback</text>
  </g>

  <!-- Adaptation example -->
  <g transform="translate(100, 350)">
    <rect x="0" y="0" width="120" height="140" fill="white" stroke="#ccc" stroke-width="2" rx="5" ry="5"/>
    <text x="60" y="20" text-anchor="middle" font-family="Arial" font-size="10" font-weight="bold" fill="#333">Adaptation</text>

    <!-- Environment change -->
    <rect x="10" y="30" width="100" height="20" fill="#ffcc80" stroke="#f57c00" stroke-width="1"/>
    <text x="60" y="45" text-anchor="middle" font-family="Arial" font-size="8" fill="#333">Environment</text>

    <!-- System response -->
    <rect x="10" y="60" width="100" height="20" fill="#a5d6a7" stroke="#388e3c" stroke-width="1"/>
    <text x="60" y="75" text-anchor="middle" font-family="Arial" font-size="8" fill="#333">System Response</text>

    <!-- Adaptation -->
    <rect x="10" y="90" width="100" height="20" fill="#e3f2fd" stroke="#1976d2" stroke-width="1"/>
    <text x="60" y="105" text-anchor="middle" font-family="Arial" font-size="8" fill="#333">Adaptation</text>

    <!-- Performance -->
    <rect x="10" y="120" width="100" height="15" fill="#f44336" stroke="#c62828" stroke-width="1"/>
    <text x="60" y="132" text-anchor="middle" font-family="Arial" font-size="8" fill="#333">Performance</text>
  </g>

  <!-- Integration challenges -->
  <g transform="translate(700, 480)">
    <rect x="0" y="0" width="160" height="140" fill="white" stroke="#ccc" stroke-width="2" rx="5" ry="5"/>
    <text x="80" y="20" text-anchor="middle" font-family="Arial" font-size="10" font-weight="bold" fill="#333">Integration Challenges</text>

    <!-- Multi-modal -->
    <g transform="translate(20, 40)">
      <circle cx="0" cy="0" r="8" fill="#bbdefb" stroke="#1976d2" stroke-width="1"/>
      <text x="12" y="4" font-family="Arial" font-size="8" fill="#333">Multi-modal</text>
    </g>

    <!-- Real-time -->
    <g transform="translate(20, 65)">
      <circle cx="0" cy="0" r="8" fill="#e8f5e8" stroke="#388e3c" stroke-width="1"/>
      <text x="12" y="4" font-family="Arial" font-size="8" fill="#333">Real-time</text>
    </g>

    <!-- Safety -->
    <g transform="translate(20, 90)">
      <circle cx="0" cy="0" r="8" fill="#fff3e0" stroke="#f57c00" stroke-width="1"/>
      <text x="12" y="4" font-family="Arial" font-size="8" fill="#333">Safety</text>
    </g>

    <!-- Scalability -->
    <g transform="translate(20, 115)">
      <circle cx="0" cy="0" r="8" fill="#f3e5f5" stroke="#7b1fa2" stroke-width="1"/>
      <text x="12" y="4" font-family="Arial" font-size="8" fill="#333">Scalability</text>
    </g>
  </g>

  <!-- Future directions -->
  <g transform="translate(50, 520)">
    <rect x="0" y="0" width="140" height="100" fill="white" stroke="#ccc" stroke-width="2" rx="5" ry="5"/>
    <text x="70" y="20" text-anchor="middle" font-family="Arial" font-size="10" font-weight="bold" fill="#333">Future Directions</text>

    <!-- General AI -->
    <g transform="translate(10, 40)">
      <rect x="0" y="0" width="120" height="15" fill="#e3f2fd" stroke="#1976d2" stroke-width="1"/>
      <text x="60" y="11" text-anchor="middle" font-family="Arial" font-size="7" fill="#333">General Physical Intelligence</text>
    </g>

    <!-- Ethics -->
    <g transform="translate(10, 60)">
      <rect x="0" y="0" width="120" height="15" fill="#fce4ec" stroke="#c2185b" stroke-width="1"/>
      <text x="60" y="11" text-anchor="middle" font-family="Arial" font-size="7" fill="#333">Ethical Considerations</text>
    </g>

    <!-- Convergence -->
    <g transform="translate(10, 80)">
      <rect x="0" y="0" width="120" height="15" fill="#e0f7fa" stroke="#00838f" stroke-width="1"/>
      <text x="60" y="11" text-anchor="middle" font-family="Arial" font-size="7" fill="#333">Technology Convergence</text>
    </g>
  </g>

  <!-- Arrowhead Definition -->
  <defs>
    <marker id="arrowhead" markerWidth="10" markerHeight="7"
      refX="9" refY="3.5" orient="auto">
      <polygon points="0 0, 10 3.5, 0 7" fill="#333" />
    </marker>
  </defs>

  <!-- Title -->
  <text x="450" y="30" text-anchor="middle" font-family="Arial" font-size="20" font-weight="bold" fill="#333">Advanced Topics in Physical AI</text>
  <text x="450" y="55" text-anchor="middle" font-family="Arial" font-size="12" fill="#666">Machine learning, adaptation, integration, and future directions for Physical AI systems</text>
</svg>